<?xml version="1.0" encoding="UTF-8"?>
<svg version="1.1" xmlns="http://www.w3.org/2000/svg" width="242" height="241">
<path d="M0 0 C79.86 0 159.72 0 242 0 C242 79.53 242 159.06 242 241 C162.14 241 82.28 241 0 241 C0 161.47 0 81.94 0 0 Z " fill="#020201" transform="translate(0,0)"/>
<path d="M0 0 C1.55775146 0.01389771 1.55775146 0.01389771 3.14697266 0.02807617 C9.21433081 0.30264545 13.21758057 0.85679335 17.6875 5.3125 C19.12171525 7.1639415 20.49786349 9.06182048 21.8125 11 C23.30060636 12.82227761 24.80073012 14.63480533 26.3125 16.4375 C27.0446875 17.35402344 27.776875 18.27054688 28.53125 19.21484375 C31.64676702 23.01854861 34.97981082 26.60116261 38.3203125 30.20703125 C41.68633384 33.97929655 44.75017089 37.9509865 47.8046875 41.98046875 C48.46726562 42.64691406 49.12984375 43.31335938 49.8125 44 C51.1325 44 52.4525 44 53.8125 44 C55.85991839 41.94357537 57.63416598 39.94188549 59.4375 37.6875 C60.50761753 36.39199111 61.57925244 35.09773423 62.65234375 33.8046875 C63.18456543 33.15854492 63.71678711 32.51240234 64.26513672 31.84667969 C66.43346468 29.25891814 68.70590704 26.78968958 71 24.3125 C74.29820604 20.72932896 77.40485922 17.06024098 80.4375 13.25 C81.18773437 12.35152344 81.93796875 11.45304687 82.7109375 10.52734375 C84.78841067 8.09252791 84.78841067 8.09252791 86.4140625 5.75390625 C89.74006974 1.83678398 92.75412282 0.84413936 97.7734375 0.40234375 C99.66056366 0.32516707 101.54896118 0.27495086 103.4375 0.25 C104.35692383 0.23428955 105.27634766 0.2185791 106.22363281 0.20239258 C107.55539551 0.23369263 107.55539551 0.23369263 108.9140625 0.265625 C110.11023193 0.29317871 110.11023193 0.29317871 111.33056641 0.32128906 C114.93892931 1.30803398 117.51909069 3.0912341 119.8125 6 C120.6746619 9.02168431 120.60347653 11.93151681 120.54125977 15.05712891 C120.5469548 15.96012222 120.55264984 16.86311554 120.55851746 17.79347229 C120.56961326 20.7719694 120.53758019 23.74826129 120.50390625 26.7265625 C120.50032922 28.79730979 120.49897171 30.86806201 120.4997406 32.93881226 C120.49505111 37.2749486 120.4702208 41.61034007 120.42993164 45.94628906 C120.37889778 51.50959067 120.36749064 57.0720756 120.36976719 62.63558388 C120.36895232 66.90951358 120.35251377 71.18326407 120.33076286 75.45713425 C120.32120517 77.50888081 120.31530118 79.56064769 120.31308174 81.61241531 C120.30659155 84.47585065 120.28036437 87.33841202 120.24829102 90.20166016 C120.25033035 91.4781266 120.25033035 91.4781266 120.25241089 92.78038025 C120.15732448 98.57264304 120.15732448 98.57264304 118.42721462 100.71684837 C116.23120086 102.46193608 114.77894643 102.38737667 111.99609375 102.3984375 C111.06732422 102.40230469 110.13855469 102.40617187 109.18164062 102.41015625 C107.73047852 102.39275391 107.73047852 102.39275391 106.25 102.375 C105.27869141 102.38660156 104.30738281 102.39820313 103.30664062 102.41015625 C102.37916016 102.40628906 101.45167969 102.40242188 100.49609375 102.3984375 C99.22076782 102.39336182 99.22076782 102.39336182 97.91967773 102.38818359 C97.22430908 102.26008301 96.52894043 102.13198242 95.8125 102 C93.48808185 98.51337277 93.56848259 97.17422077 93.58544922 93.05981445 C93.58560028 91.83877518 93.58575134 90.6177359 93.58590698 89.35969543 C93.59622955 88.04087875 93.60655212 86.72206207 93.6171875 85.36328125 C93.62091839 83.99993599 93.623765 82.63658804 93.62576294 81.27323914 C93.63339347 77.68765846 93.65303685 74.10224021 93.6751709 70.51672363 C93.69564189 66.85687456 93.70476733 63.19699921 93.71484375 59.53710938 C93.7362834 52.35799893 93.77041221 45.17902224 93.8125 38 C93.1525 38 92.4925 38 91.8125 38 C91.58691406 38.54527344 91.36132812 39.09054688 91.12890625 39.65234375 C89.42106854 42.69807213 87.14196446 45.05321848 84.75 47.5625 C81.12263008 51.43675897 77.63703427 55.35785875 74.3125 59.5 C70.95626439 63.66343152 67.47894524 67.67669874 63.875 71.625 C63.40191406 72.14642578 62.92882812 72.66785156 62.44140625 73.20507812 C59.04011862 76.89804595 57.18169881 78.19076168 52.1875 78.5 C46.99153172 78.39608063 44.61632263 77.05045826 40.98828125 73.4296875 C37.28184467 69.29072242 33.63059695 65.11456445 30.0625 60.85546875 C27.8041343 58.16082786 25.51099278 55.50198134 23.1875 52.86328125 C22.59283936 52.18652344 21.99817871 51.50976562 21.38549805 50.8125 C20.23120491 49.50117433 19.07391447 48.19247965 17.91333008 46.88671875 C15.6307441 44.28167389 13.91943021 42.32079064 12.8125 39 C12.1525 39 11.4925 39 10.8125 39 C10.82138245 40.2815094 10.83026489 41.5630188 10.8394165 42.88336182 C10.9204372 54.94930566 10.9804342 67.01519446 11.01974869 79.08134842 C11.04064003 85.28497895 11.06898643 91.48839021 11.11425781 97.69189453 C11.15765958 103.67653311 11.18162545 109.66096053 11.19200897 115.64574432 C11.19941048 117.93116328 11.21386354 120.21657044 11.23542023 122.50189972 C11.26437816 125.69846236 11.2684591 128.89414801 11.26660156 132.09082031 C11.28098267 133.03956528 11.29536377 133.98831024 11.31018066 134.96580505 C11.26978381 141.37325656 11.26978381 141.37325656 8.92427063 144.58796692 C6.45280956 146.24050661 5.10732611 146.50295678 2.15234375 146.49609375 C1.27642578 146.49673828 0.40050781 146.49738281 -0.50195312 146.49804688 C-1.40880859 146.47806641 -2.31566406 146.45808594 -3.25 146.4375 C-4.16072266 146.44458984 -5.07144531 146.45167969 -6.00976562 146.45898438 C-12.65007525 146.3953705 -12.65007525 146.3953705 -14.79491425 144.81746387 C-16.71107928 142.3166766 -16.57013297 140.65062165 -16.58190918 137.51652527 C-16.59325897 136.37674728 -16.60460876 135.2369693 -16.61630249 134.06265259 C-16.61337189 132.81116425 -16.61044128 131.5596759 -16.60742188 130.27026367 C-16.61589142 128.95297775 -16.62436096 127.63569183 -16.63308716 126.27848816 C-16.65533367 122.66261957 -16.65823217 119.04697865 -16.65633965 115.43105102 C-16.65622005 112.4117716 -16.6647802 109.39254059 -16.67311716 106.37327462 C-16.69236391 99.24808457 -16.69523105 92.12301167 -16.68847656 84.99780273 C-16.68184014 77.65123248 -16.70468065 70.30516486 -16.74179029 62.95869654 C-16.77250238 56.64943556 -16.78384555 50.3403361 -16.77995348 44.03100187 C-16.77788686 40.26362406 -16.78335049 36.49663701 -16.80784607 32.72933006 C-16.83013511 29.18407036 -16.82821872 25.63962593 -16.80791855 22.09436226 C-16.80289071 20.17752362 -16.82251345 18.26066965 -16.84292603 16.34393311 C-16.75114135 6.94144682 -16.75114135 6.94144682 -13.80656433 3.23262024 C-9.47492416 -0.45988452 -5.49730722 -0.06761487 0 0 Z " fill="#FAF4DF" transform="translate(72.1875,50)"/>
<path d="M0 0 C1.09183594 0.48678223 2.18367188 0.97356445 3.30859375 1.47509766 C6.8940489 2.95623211 9.17057005 3.40555396 13 3.375 C13.969375 3.38273438 14.93875 3.39046875 15.9375 3.3984375 C19.78558681 3.03899966 19.78558681 3.03899966 26 0 C26 12.21 26 24.42 26 37 C30.22425781 36.95359375 34.44851562 36.9071875 38.80078125 36.859375 C42.16769181 36.83365361 45.53457463 36.81196167 48.9015274 36.79299927 C52.45660596 36.77187028 56.01130351 36.7436338 59.56616211 36.69824219 C63.64440613 36.64649303 67.72224626 36.62705926 71.80078125 36.609375 C73.07585037 36.58872986 74.35091949 36.56808472 75.66462708 36.54681396 C76.84562485 36.54651184 78.02662262 36.54620972 79.2434082 36.54589844 C80.28487503 36.53701599 81.32634186 36.52813354 82.39936829 36.51898193 C85 37 85 37 86.83268738 38.78033447 C88.64459517 42.22570908 88.47296477 45.70204595 88.4375 49.5 C88.45748047 50.25925781 88.47746094 51.01851562 88.49804688 51.80078125 C88.49511252 55.15181077 88.39335342 57.44978265 86.41598511 60.21569824 C83.11946511 62.65031028 80.92639819 62.50749868 76.84814453 62.51757812 C76.13543396 62.5245874 75.42272339 62.53159668 74.68841553 62.53881836 C72.33614949 62.55639972 69.98509045 62.54477375 67.6328125 62.53125 C65.99380259 62.5339455 64.35479424 62.5378284 62.71578979 62.54284668 C59.280912 62.54874238 55.84645046 62.54017904 52.41162109 62.52148438 C48.01765736 62.49873036 43.62467287 62.51179425 39.23074532 62.53577423 C35.84541512 62.55026127 32.46031519 62.54561238 29.07497787 62.53526306 C27.45552326 62.53260191 25.83604747 62.53584398 24.21661758 62.54518127 C21.94740104 62.55539131 19.67974544 62.5397848 17.41064453 62.51757812 C16.12143097 62.51439575 14.83221741 62.51121338 13.50393677 62.50793457 C8.25836634 61.74753085 5.21505955 59.29355634 1.64941406 55.49755859 C-0.77761627 50.35107598 -0.49545843 45.65757205 -0.390625 40.0390625 C-0.38496521 38.89335785 -0.37930542 37.7476532 -0.37347412 36.56723022 C-0.35114072 32.91938945 -0.30094736 29.27254232 -0.25 25.625 C-0.22993119 23.14714963 -0.21168109 20.66928382 -0.1953125 18.19140625 C-0.15128576 12.12726697 -0.08440286 6.06370449 0 0 Z " fill="#FBF5E1" transform="translate(111,134)"/>
<path d="M0 0 C6.6 0 13.2 0 20 0 C18.35 1.32 16.7 2.64 15 4 C9.56113787 8.79961243 5.64017579 13.74093536 2.12890625 20.09375 C1.57009766 21.03734375 1.57009766 21.03734375 1 22 C0.67 22 0.34 22 0 22 C0 14.74 0 7.48 0 0 Z " fill="#E7EBEC" transform="translate(0,0)"/>
<path d="M0 0 C2.50920533 3.763808 4.92057143 7.58666345 7.34375 11.40625 C8.54259807 13.28369131 9.76437215 15.14655823 11 17 C7.37 17 3.74 17 0 17 C0 11.39 0 5.78 0 0 Z " fill="#DCDFE0" transform="translate(0,224)"/>
<path d="M0 0 C4.29 0 8.58 0 13 0 C13 3.63 13 7.26 13 11 C11.96875 10.0925 10.9375 9.185 9.875 8.25 C7.52239013 6.22320983 5.16979377 4.37384036 2.5625 2.6875 C1.716875 2.130625 0.87125 1.57375 0 1 C0 0.67 0 0.34 0 0 Z " fill="#DFE2E3" transform="translate(229,0)"/>
</svg>
