<?xml version="1.0" encoding="UTF-8"?>
<svg version="1.1" xmlns="http://www.w3.org/2000/svg" width="242" height="241">
<path d="M0 0 C79.86 0 159.72 0 242 0 C242 79.53 242 159.06 242 241 C162.14 241 82.28 241 0 241 C0 161.47 0 81.94 0 0 Z " fill="#FDFDFD" transform="translate(0,0)"/>
<path d="M0 0 C1.2684375 -0.00773437 2.536875 -0.01546875 3.84375 -0.0234375 C8.48106448 0.48191087 11.73168807 1.70546381 15.14665222 4.92967224 C17.16264642 8.57231802 16.90917519 12.17037686 16.87231445 16.22680664 C16.87596512 17.11990036 16.87961578 18.01299408 16.88337708 18.93315125 C16.89148045 21.88401324 16.8778752 24.8343258 16.86328125 27.78515625 C16.86276266 29.83491516 16.86328031 31.88467457 16.86479187 33.93443298 C16.86470216 38.22923206 16.85427404 42.52384338 16.83618164 46.81860352 C16.81348031 52.32912344 16.8129531 57.83936931 16.81969929 63.34992313 C16.82303724 67.5817662 16.81641268 71.81354655 16.80657005 76.04537773 C16.80271584 78.07759714 16.80157075 80.10982353 16.8031559 82.14204597 C16.8035259 84.97902907 16.7909251 87.81565791 16.7746582 90.65258789 C16.77713562 91.49578583 16.77961304 92.33898376 16.78216553 93.20773315 C16.74637311 97.11012433 16.7140164 99.0539754 14.5 102.375 C12.28515625 102.76318359 12.28515625 102.76318359 9.5625 102.7734375 C8.09683594 102.77923828 8.09683594 102.77923828 6.6015625 102.78515625 C5.57804687 102.77355469 4.55453125 102.76195312 3.5 102.75 C2.47648437 102.76160156 1.45296875 102.77320313 0.3984375 102.78515625 C-1.06722656 102.77935547 -1.06722656 102.77935547 -2.5625 102.7734375 C-3.46097656 102.77005371 -4.35945313 102.76666992 -5.28515625 102.76318359 C-6.38150391 102.57103271 -6.38150391 102.57103271 -7.5 102.375 C-9.82441815 98.88837277 -9.74401741 97.54922077 -9.72705078 93.43481445 C-9.72689972 92.21377518 -9.72674866 90.9927359 -9.72659302 89.73469543 C-9.71627045 88.41587875 -9.70594788 87.09706207 -9.6953125 85.73828125 C-9.69158161 84.37493599 -9.688735 83.01158804 -9.68673706 81.64823914 C-9.67910653 78.06265846 -9.65946315 74.47724021 -9.6373291 70.89172363 C-9.61685811 67.23187456 -9.60773267 63.57199921 -9.59765625 59.91210938 C-9.5762166 52.73299893 -9.54208779 45.55402224 -9.5 38.375 C-10.16 38.375 -10.82 38.375 -11.5 38.375 C-11.74621094 38.94089844 -11.99242187 39.50679687 -12.24609375 40.08984375 C-13.71536224 42.76748258 -15.47752435 44.70543612 -17.5625 46.9375 C-20.75385812 50.41298539 -23.80455526 53.93911074 -26.75 57.625 C-30.48593312 62.24036516 -34.40586738 66.64405974 -38.4375 71 C-39.0056543 71.61649414 -39.57380859 72.23298828 -40.15917969 72.86816406 C-45.1871295 78.25416944 -45.1871295 78.25416944 -48.70703125 78.578125 C-49.56683594 78.59359375 -50.42664063 78.6090625 -51.3125 78.625 C-52.16457031 78.65078125 -53.01664062 78.6765625 -53.89453125 78.703125 C-58.23068313 78.1570429 -60.70266983 76.25073184 -63.60546875 73.0625 C-64.29253906 72.175625 -64.97960937 71.28875 -65.6875 70.375 C-68.83562453 66.40721453 -72.06281074 62.59550346 -75.5 58.875 C-79.75283954 54.25668206 -83.75584274 49.48335287 -87.6875 44.58984375 C-89.46126357 42.34746433 -89.46126357 42.34746433 -91.5 40.375 C-91.50586624 41.64398132 -91.51173248 42.91296265 -91.51777649 44.22039795 C-91.57494447 56.16878745 -91.64767506 68.1169939 -91.73571491 80.06519699 C-91.78047698 86.20816491 -91.81972032 92.35106561 -91.84643555 98.49414062 C-91.87241014 104.42054157 -91.91277126 110.34668465 -91.96318626 116.27292633 C-91.97989453 118.53595019 -91.99138407 120.79901868 -91.99761391 123.06209564 C-92.00721181 126.2275457 -92.03521995 129.39233006 -92.06762695 132.55761719 C-92.06619186 133.49701141 -92.06475677 134.43640564 -92.0632782 135.40426636 C-92.15515464 141.73355708 -92.15515464 141.73355708 -93.88822937 144.95722961 C-96.06867961 146.87523068 -97.40016241 146.87741192 -100.28125 146.87109375 C-101.20550781 146.87173828 -102.12976563 146.87238281 -103.08203125 146.87304688 C-104.04496094 146.85306641 -105.00789063 146.83308594 -106 146.8125 C-106.96292969 146.81958984 -107.92585938 146.82667969 -108.91796875 146.83398438 C-115.96064189 146.77013866 -115.96064189 146.77013866 -118.11414337 145.19246387 C-120.02144143 142.69116234 -119.88265046 141.02096835 -119.89440918 137.89152527 C-119.90575897 136.75174728 -119.91710876 135.6119693 -119.92880249 134.43765259 C-119.92587189 133.18616425 -119.92294128 131.9346759 -119.91992188 130.64526367 C-119.92839142 129.32797775 -119.93686096 128.01069183 -119.94558716 126.65348816 C-119.96783367 123.03761957 -119.97073217 119.42197865 -119.96883965 115.80605102 C-119.96872005 112.7867716 -119.9772802 109.76754059 -119.98561716 106.74827462 C-120.00486391 99.62308457 -120.00773105 92.49801167 -120.00097656 85.37280273 C-119.99434014 78.02623248 -120.01718065 70.68016486 -120.05429029 63.33369654 C-120.08500238 57.02443556 -120.09634555 50.7153361 -120.09245348 44.40600187 C-120.09038686 40.63862406 -120.09585049 36.87163701 -120.12034607 33.10433006 C-120.14263511 29.55907036 -120.14071872 26.01462593 -120.12041855 22.46936226 C-120.11539071 20.55252362 -120.13501345 18.63566965 -120.15542603 16.71893311 C-120.06364232 7.31654559 -120.06364232 7.31654559 -117.11056519 3.60166931 C-114.32035141 1.22176957 -113.26584799 0.62189576 -109.6640625 0.6484375 C-108.76429687 0.64972656 -107.86453125 0.65101562 -106.9375 0.65234375 C-106.009375 0.68457031 -105.08125 0.71679688 -104.125 0.75 C-103.20460938 0.74355469 -102.28421875 0.73710938 -101.3359375 0.73046875 C-94.59653692 0.83637362 -90.05016094 1.91746255 -85.07763672 6.76025391 C-83.69278978 8.29524689 -82.4034467 9.87553632 -81.125 11.5 C-80.17327201 12.66780658 -79.22012979 13.83446194 -78.265625 15 C-77.79962891 15.57363281 -77.33363281 16.14726563 -76.85351562 16.73828125 C-74.93358343 19.05993086 -72.91045097 21.27950803 -70.875 23.5 C-66.2131197 28.62973925 -61.85871585 33.98772838 -57.5 39.375 C-55.84120892 41.38178921 -54.17209535 43.37927329 -52.5 45.375 C-48.68511059 43.86101922 -46.86923371 41.64502932 -44.375 38.4375 C-40.37804714 33.41501318 -36.18274197 28.6540113 -31.83984375 23.9296875 C-29.84165152 21.74802185 -27.87851111 19.54488691 -25.9375 17.3125 C-25.3909375 16.68859375 -24.844375 16.0646875 -24.28125 15.421875 C-22.93802489 13.87834439 -21.60670843 12.32443878 -20.28125 10.765625 C-19.5078125 9.87359375 -18.734375 8.9815625 -17.9375 8.0625 C-17.23496094 7.24136719 -16.53242188 6.42023437 -15.80859375 5.57421875 C-10.94250164 0.93866907 -6.61641288 -0.04034398 0 0 Z " fill="#030303" transform="translate(174.5,44.625)"/>
<path d="M0 0 C1.09183594 0.48678223 2.18367188 0.97356445 3.30859375 1.47509766 C6.8940489 2.95623211 9.17057005 3.40555396 13 3.375 C13.969375 3.38273438 14.93875 3.39046875 15.9375 3.3984375 C19.78558681 3.03899966 19.78558681 3.03899966 26 0 C26 12.21 26 24.42 26 37 C30.22425781 36.96519531 34.44851562 36.93039063 38.80078125 36.89453125 C42.16769392 36.8752402 45.53459099 36.85897118 48.9015274 36.84474945 C52.45651833 36.8289031 56.01129491 36.80772543 59.56616211 36.77368164 C63.64438967 36.73486993 67.72239001 36.72029398 71.80078125 36.70703125 C73.07585037 36.69154739 74.35091949 36.67606354 75.66462708 36.66011047 C76.84562485 36.65988388 78.02662262 36.65965729 79.2434082 36.65942383 C80.28487503 36.65276199 81.32634186 36.64610016 82.39936829 36.63923645 C85 37 85 37 86.83552551 38.39396667 C88.34762207 40.47943741 88.38704751 41.78154372 88.3984375 44.34375 C88.40230469 45.17777344 88.40617187 46.01179688 88.41015625 46.87109375 C88.39855469 47.73863281 88.38695312 48.60617188 88.375 49.5 C88.38660156 50.36753906 88.39820313 51.23507813 88.41015625 52.12890625 C88.40628906 52.96292969 88.40242188 53.79695313 88.3984375 54.65625 C88.39505371 55.41744141 88.39166992 56.17863281 88.38818359 56.96289062 C87.87104515 59.67672909 87.24185621 60.3706005 85 62 C82.51650811 62.31142565 80.27976586 62.44069703 77.79394531 62.43579102 C77.06347992 62.44586685 76.33301453 62.45594269 75.58041382 62.46632385 C73.16282887 62.49484469 70.74586778 62.50068307 68.328125 62.50390625 C66.64524072 62.51354724 64.96235897 62.52363971 63.27947998 62.53416443 C59.74876075 62.552138 56.21826176 62.55768449 52.6875 62.5559082 C48.17341118 62.5556039 43.66074409 62.5964968 39.14699173 62.64822483 C35.66898176 62.68166882 32.19131193 62.68766326 28.71315765 62.68607903 C27.04982367 62.68960924 25.38647995 62.7028236 23.72330475 62.72607613 C9.09078558 62.91143644 9.09078558 62.91143644 4.54980469 59.20678711 C0.98683702 55.39449393 -0.25225675 51.96488981 -0.22705078 46.77246094 C-0.22689972 45.73168396 -0.22674866 44.69090698 -0.22659302 43.61859131 C-0.21627045 42.50179993 -0.20594788 41.38500854 -0.1953125 40.234375 C-0.1924826 39.08584045 -0.18965271 37.93730591 -0.18673706 36.75396729 C-0.17554263 33.08587219 -0.15043904 29.4180213 -0.125 25.75 C-0.11496926 23.26302436 -0.10584358 20.77604489 -0.09765625 18.2890625 C-0.07560568 12.19262502 -0.04213525 6.09632996 0 0 Z " fill="#020202" transform="translate(110,129)"/>
<path d="M0 0 C0.99 1.32 1.98 2.64 3 4 C3.52980469 4.68320313 4.05960937 5.36640625 4.60546875 6.0703125 C5.12753906 6.74835938 5.64960937 7.42640625 6.1875 8.125 C6.71730469 8.80820313 7.24710937 9.49140625 7.79296875 10.1953125 C9 12 9 12 9 14 C9.5775 14.2475 10.155 14.495 10.75 14.75 C13 16 13 16 17 20 C11.39 20 5.78 20 0 20 C0 13.4 0 6.8 0 0 Z " fill="#DEE1E2" transform="translate(0,221)"/>
<path d="M0 0 C3.96 0 7.92 0 12 0 C11.113125 0.969375 10.22625 1.93875 9.3125 2.9375 C5.85505071 6.94518469 3.40573888 11.30561573 1 16 C0.67 16 0.34 16 0 16 C0 10.72 0 5.44 0 0 Z " fill="#E7EAEA" transform="translate(0,0)"/>
<path d="M0 0 C0.33 0 0.66 0 1 0 C1 3.63 1 7.26 1 11 C-2.63 11 -6.26 11 -10 11 C-9.278125 10.29875 -8.55625 9.5975 -7.8125 8.875 C-5.8286838 6.9024876 -4.01682261 4.85610734 -2.25 2.6875 C-1.5075 1.800625 -0.765 0.91375 0 0 Z " fill="#C9CBCC" transform="translate(241,230)"/>
<path d="M0 0 C2.31 0 4.62 0 7 0 C7 2.64 7 5.28 7 8 C4.35247996 5.42215154 2.05567935 3.08351902 0 0 Z " fill="#DDDFE0" transform="translate(235,0)"/>
<path d="M0 0 C0 1.65 0 3.3 0 5 C-1.98 5 -3.96 5 -6 5 C-1.125 0 -1.125 0 0 0 Z " fill="#D2D5D6" transform="translate(242,236)"/>
</svg>
