<?xml version="1.0" encoding="UTF-8"?>
<svg version="1.1" xmlns="http://www.w3.org/2000/svg" width="242" height="241">
<path d="M0 0 C79.86 0 159.72 0 242 0 C242 79.53 242 159.06 242 241 C162.14 241 82.28 241 0 241 C0 161.47 0 81.94 0 0 Z " fill="#05457A" transform="translate(0,0)"/>
<path d="M0 0 C3.65594359 1.85461759 5.55266267 3.74235859 8 7 C9.35990189 8.46404755 10.72058245 9.92746 12.09521484 11.37768555 C14.44516933 13.87583184 16.71823034 16.4394621 19 19 C19.92619141 20.03640625 19.92619141 20.03640625 20.87109375 21.09375 C24.55452718 25.26300799 28.14907884 29.50950347 31.75 33.75 C32.45866211 34.58325806 32.45866211 34.58325806 33.18164062 35.43334961 C35.10367758 37.70494157 36.97585159 39.96610361 38.703125 42.390625 C39.13109375 42.92171875 39.5590625 43.4528125 40 44 C42.09431517 44.23471676 42.09431517 44.23471676 43.41015625 42.6015625 C44.22806641 41.62316406 44.22806641 41.62316406 45.0625 40.625 C47.77923786 37.42453655 50.54335219 34.28693937 53.375 31.1875 C56.46636801 27.76770672 59.42459032 24.28041476 62.3125 20.6875 C65.86372383 16.30327306 69.55885428 12.0902458 73.375 7.9375 C73.88716064 7.37699951 74.39932129 6.81649902 74.92700195 6.23901367 C80.53223913 0.19480654 80.53223913 0.19480654 84.18896484 -0.29052734 C86.91814837 -0.3396685 89.64534014 -0.37131127 92.375 -0.375 C93.79425781 -0.41173828 93.79425781 -0.41173828 95.2421875 -0.44921875 C99.66701299 -0.46786268 102.2618088 -0.45183996 106.1015625 1.8984375 C109.70881061 5.89164631 109.15451126 9.67234976 109.16113281 14.80834961 C109.16609772 15.72065842 109.17106262 16.63296722 109.17617798 17.57292175 C109.19081722 20.59940334 109.19760398 23.62583254 109.203125 26.65234375 C109.2088743 28.74980166 109.21463206 30.84725954 109.22039795 32.94471741 C109.23091248 37.34555304 109.23675242 41.74637037 109.24023438 46.1472168 C109.24572485 51.79458182 109.26976287 57.44170642 109.29820633 63.08899593 C109.31680033 67.42205011 109.32203654 71.75504596 109.32357025 76.08813667 C109.32660384 78.17061238 109.334656 80.25308689 109.34775543 82.33552361 C109.36475085 85.24462234 109.36295182 88.15312806 109.35644531 91.06225586 C109.37026749 92.35981812 109.37026749 92.35981812 109.3843689 93.68359375 C109.34294711 99.57548769 109.34294711 99.57548769 107.61008835 101.72048283 C105.47496725 103.417237 104.14420671 103.38703284 101.4375 103.3984375 C100.55835938 103.40230469 99.67921875 103.40617187 98.7734375 103.41015625 C97.40058594 103.39275391 97.40058594 103.39275391 96 103.375 C94.62714844 103.39240234 94.62714844 103.39240234 93.2265625 103.41015625 C92.34742188 103.40628906 91.46828125 103.40242188 90.5625 103.3984375 C89.35787109 103.39336182 89.35787109 103.39336182 88.12890625 103.38818359 C85.38480661 102.88782598 84.66999918 102.22648886 83 100 C82.60127258 97.24751282 82.60127258 97.24751282 82.56762695 93.8762207 C82.54783279 92.61513992 82.52803864 91.35405914 82.50764465 90.05476379 C82.50087488 88.67843779 82.49442802 87.30211017 82.48828125 85.92578125 C82.47143621 84.51757739 82.4532862 83.10938859 82.43388367 81.70121765 C82.38635785 77.99739282 82.35656556 74.293629 82.33044434 70.58959961 C82.30065158 66.80895942 82.25411693 63.02852955 82.20898438 59.24804688 C82.12292206 51.83213555 82.05559019 44.41620898 82 37 C72.73808464 46.94361676 72.73808464 46.94361676 63.8125 57.1875 C62.81978034 58.35352052 61.82628348 59.51887976 60.83203125 60.68359375 C60.35717285 61.24030762 59.88231445 61.79702148 59.39306641 62.37060547 C57.27768002 64.84485867 55.1494028 67.30509828 53 69.75 C52.319375 70.52859375 51.63875 71.3071875 50.9375 72.109375 C47.72315816 75.24595051 45.61221695 75.9407532 41.125 76.375 C35.58067226 76.17078903 32.67846492 73.71994789 28.9453125 69.89453125 C25.02329649 65.62645501 21.32691364 61.19720821 17.6875 56.6875 C14.18381884 52.3486128 10.50727673 48.22506386 6.70703125 44.14453125 C6.15583618 43.55015259 5.60464111 42.95577393 5.03674316 42.34338379 C3.69256124 40.8942901 2.34647851 39.44695998 1 38 C0.99413376 38.97052811 0.98826752 39.94105621 0.98222351 40.94099426 C0.92505704 50.07894885 0.85232755 59.21666407 0.76428509 68.35437489 C0.7195216 73.05239466 0.68027882 77.7503265 0.65356445 82.44848633 C0.6275909 86.98089665 0.58723115 91.5129697 0.53681374 96.04517174 C0.52010463 97.7759145 0.50861559 99.50671564 0.50238609 101.23752785 C0.49278868 103.65846903 0.46478329 106.07853949 0.43237305 108.49926758 C0.43380814 109.21783936 0.43524323 109.93641113 0.4367218 110.67675781 C0.38156241 113.58219567 0.3296912 115.53594228 -1.38150024 117.9445343 C-3.65111493 119.42460895 -5.33884011 119.38822326 -8.03515625 119.3984375 C-9.00904297 119.40230469 -9.98292969 119.40617187 -10.98632812 119.41015625 C-12.00146484 119.39855469 -13.01660156 119.38695312 -14.0625 119.375 C-15.08150391 119.38660156 -16.10050781 119.39820313 -17.15039062 119.41015625 C-18.12298828 119.40628906 -19.09558594 119.40242188 -20.09765625 119.3984375 C-20.98976807 119.39505371 -21.88187988 119.39166992 -22.80102539 119.38818359 C-23.88951782 119.19603271 -23.88951782 119.19603271 -25 119 C-27.10309967 115.8453505 -27.25237473 115.09788196 -27.26742554 111.49685669 C-27.27595551 110.57440155 -27.28448547 109.65194641 -27.29327393 108.70153809 C-27.29236755 107.6915979 -27.29146118 106.68165771 -27.29052734 105.64111328 C-27.29724457 104.5758139 -27.30396179 103.51051453 -27.31088257 102.41293335 C-27.32992163 98.88201263 -27.33378977 95.35128139 -27.3359375 91.8203125 C-27.34236134 89.37035035 -27.34908939 86.92038898 -27.35610962 84.47042847 C-27.3680972 79.33069072 -27.37178892 74.19102027 -27.37060547 69.05126953 C-27.37040221 62.46129451 -27.39770587 55.87175038 -27.43214989 49.28187752 C-27.45437409 44.22042861 -27.45844438 39.15908412 -27.45738602 34.0975914 C-27.45974867 31.66788116 -27.46860935 29.23816833 -27.48405075 26.80850601 C-27.50361929 23.41125464 -27.49790789 20.01494187 -27.48583984 16.61767578 C-27.49707886 15.61178406 -27.50831787 14.60589233 -27.51989746 13.56951904 C-27.48027219 9.18567043 -27.42946565 6.69898311 -25.09463501 2.89889526 C-19.23220241 -2.41570391 -7.42928025 -1.18739483 0 0 Z " fill="#FAF4E3" transform="translate(75,50)"/>
<path d="M0 0 C0.66 0 1.32 0 2 0 C2 13.2 2 26.4 2 40 C5.98449219 39.95359375 9.96898437 39.9071875 14.07421875 39.859375 C17.93317389 39.82818024 21.79211499 39.80389182 25.65112305 39.78027344 C28.33327823 39.76241675 31.0150546 39.73458564 33.69702148 39.69824219 C37.55203066 39.64972458 41.40645998 39.62703006 45.26171875 39.609375 C46.46084396 39.58872986 47.65996918 39.56808472 48.89543152 39.54681396 C57.16606138 39.54458449 57.16606138 39.54458449 61.25683594 41.77856445 C63.87395906 45.11374699 63.69059929 48.38333068 63.5625 52.4375 C63.57345703 53.18837891 63.58441406 53.93925781 63.59570312 54.71289062 C63.52831935 59.82058043 62.74658104 62.24058625 59 66 C55.83268738 66.62145996 55.83268738 66.62145996 52.04760742 66.61523438 C51.35601028 66.62078339 50.66441315 66.6263324 49.95185852 66.63204956 C47.66902003 66.64384497 45.38816803 66.61956834 43.10546875 66.59375 C41.51369823 66.59203818 39.92192488 66.59210531 38.33015442 66.59387207 C34.99351023 66.59221869 31.65753776 66.57352434 28.32104492 66.54199219 C24.05730962 66.50241073 19.79445789 66.49793556 15.53057384 66.50545502 C12.24213153 66.50853517 8.95388546 66.49636563 5.6654911 66.47932434 C4.09432521 66.47232165 2.52313707 66.46916648 0.9519558 66.47001648 C-1.25224023 66.46820518 -3.45540732 66.44670942 -5.65942383 66.41992188 C-6.91088699 66.41150269 -8.16235016 66.4030835 -9.45173645 66.39440918 C-14.17328189 65.86958321 -17.95305676 64.60158602 -21.76017761 61.62278748 C-26.0478318 55.95625173 -25.64019215 50.15434491 -25.48828125 43.28515625 C-25.48120651 42.07427841 -25.47413177 40.86340057 -25.46684265 39.61582947 C-25.43894685 35.76408032 -25.37621161 31.91380675 -25.3125 28.0625 C-25.28741117 25.44468251 -25.26459903 22.82684215 -25.24414062 20.20898438 C-25.18913557 13.80548965 -25.1055549 7.40285027 -25 1 C-24.39816895 1.21221191 -23.79633789 1.42442383 -23.17626953 1.64306641 C-22.37817871 1.91812012 -21.58008789 2.19317383 -20.7578125 2.4765625 C-19.97035645 2.75064941 -19.18290039 3.02473633 -18.37158203 3.30712891 C-11.95424975 5.1819888 -6.82978779 3.97438152 -1 1 C-0.67 0.67 -0.34 0.34 0 0 Z " fill="#FBF6E4" transform="translate(128,131)"/>
<path d="M0 0 C0.66 0 1.32 0 2 0 C2 13.2 2 26.4 2 40 C5.98449219 39.95359375 9.96898437 39.9071875 14.07421875 39.859375 C17.93317389 39.82818024 21.79211499 39.80389182 25.65112305 39.78027344 C28.33327823 39.76241675 31.0150546 39.73458564 33.69702148 39.69824219 C37.55203066 39.64972458 41.40645998 39.62703006 45.26171875 39.609375 C46.46084396 39.58872986 47.65996918 39.56808472 48.89543152 39.54681396 C57.16606138 39.54458449 57.16606138 39.54458449 61.25683594 41.77856445 C63.87395906 45.11374699 63.69059929 48.38333068 63.5625 52.4375 C63.57345703 53.18837891 63.58441406 53.93925781 63.59570312 54.71289062 C63.52835288 59.8180389 62.75396116 62.24867914 59 66 C55.7855835 66.60127258 55.7855835 66.60127258 51.93652344 66.56762695 C51.23368225 66.56835709 50.53084106 66.56908722 49.80670166 66.56983948 C47.49013312 66.5663638 45.17559092 66.52750908 42.859375 66.48828125 C41.25084532 66.47895292 39.64230142 66.4718369 38.03375244 66.46684265 C33.80505992 66.44777407 29.57722944 66.39867551 25.34887695 66.34332275 C21.03218243 66.29212664 16.71534827 66.2693279 12.3984375 66.24414062 C3.93189656 66.1905557 -4.53394441 66.10524577 -13 66 C-13 65.67 -13 65.34 -13 65 C10.1 65 33.2 65 57 65 C57 64.34 57 63.68 57 63 C57.99 62.67 58.98 62.34 60 62 C60.02690104 59.20826945 60.04679053 56.41679652 60.0625 53.625 C60.07506836 52.43390625 60.07506836 52.43390625 60.08789062 51.21875 C60.23040151 46.97607778 60.23040151 46.97607778 59 43 C55.89095428 41.89621779 52.86516894 41.84826211 49.58886719 41.79467773 C48.50804871 41.77473251 47.42723022 41.75478729 46.31365967 41.73423767 C45.15312073 41.71752518 43.99258179 41.70081268 42.796875 41.68359375 C41.60394836 41.66281265 40.41102173 41.64203156 39.1819458 41.62062073 C35.37135577 41.55523761 31.56069686 41.49629224 27.75 41.4375 C25.16665954 41.39430411 22.58332605 41.35068948 20 41.30664062 C13.66673625 41.19877977 7.33342018 41.09962207 1 41 C0.67 27.47 0.34 13.94 0 0 Z " fill="#A0B7C2" transform="translate(128,131)"/>
<path d="M0 0 C4.875 1.875 4.875 1.875 6 3 C6.0952822 5.98298214 6.12552175 8.94276345 6.11352539 11.92602539 C6.11367142 12.86251419 6.11381744 13.79900299 6.1139679 14.76387024 C6.11326837 17.87515539 6.10547415 20.98638149 6.09765625 24.09765625 C6.09579221 26.24857043 6.09436824 28.39948503 6.09336853 30.55039978 C6.08954225 36.22381758 6.07971102 41.89720995 6.06866455 47.57061768 C6.0584528 53.35501766 6.05387142 59.13942173 6.04882812 64.92382812 C6.03808885 76.28256328 6.02101111 87.64127953 6 99 C5.34 99 4.68 99 4 99 C3.99413376 97.8334639 3.98826752 96.6669278 3.98222351 95.46504211 C3.92501968 84.47350351 3.85227017 73.48216319 3.76428509 62.49082661 C3.71955063 56.84000892 3.68030115 51.18926385 3.65356445 45.53833008 C3.62756237 40.08523451 3.58718158 34.63241791 3.53681374 29.17949486 C3.52012413 27.09872087 3.50862292 25.01789861 3.50238609 22.93706703 C3.49276792 20.023258 3.46473555 17.11016605 3.43237305 14.1965332 C3.43380814 13.33554016 3.43524323 12.47454712 3.4367218 11.58746338 C3.36278487 6.88284763 2.96677459 3.87764719 0 0 Z " fill="#1E4B6D" transform="translate(180,51)"/>
<path d="M0 0 C6.6 0 13.2 0 20 0 C20 7.59 20 15.18 20 23 C17.92768902 20.23691869 16.11813149 17.60030953 14.3125 14.6875 C11.62030267 10.60209055 8.60981856 7.59263291 4.83203125 4.5078125 C3 3 3 3 0 0 Z " fill="#C8CDCF" transform="translate(222,0)"/>
<path d="M0 0 C3.39554235 -0.11660824 6.79056679 -0.18738372 10.1875 -0.25 C11.14720703 -0.28351562 12.10691406 -0.31703125 13.09570312 -0.3515625 C20.25784723 -0.45069252 20.25784723 -0.45069252 24.11328125 1.890625 C27.71380356 5.91605367 27.13478516 9.70090876 27.11352539 14.85595703 C27.11367142 15.77308472 27.11381744 16.6902124 27.1139679 17.63513184 C27.11326948 20.67604919 27.1054804 23.7169058 27.09765625 26.7578125 C27.09579182 28.86245693 27.09436803 30.9671018 27.09336853 33.07174683 C27.08954535 38.61856275 27.07971674 44.1653526 27.06866455 49.7121582 C27.05844616 55.3692998 27.05386999 61.02644559 27.04882812 66.68359375 C27.03809431 77.78907397 27.02102026 88.89453482 27 100 C26.67 100 26.34 100 26 100 C24.87495114 68.33406371 24.88827548 36.6826407 25 5 C24.01 4.67 23.02 4.34 22 4 C22 3.34 22 2.68 22 2 C14.74 1.67 7.48 1.34 0 1 C0 0.67 0 0.34 0 0 Z " fill="#E7F0EB" transform="translate(157,50)"/>
<path d="M0 0 C0.67508102 0.16076523 1.35016205 0.32153046 2.04570007 0.48716736 C5.49236853 1.08546954 8.76976106 1.16301956 12.26879883 1.20532227 C12.98153961 1.21522186 13.6942804 1.22512146 14.42861938 1.23532104 C16.7713902 1.26676774 19.11418124 1.29162646 21.45703125 1.31640625 C23.0865683 1.33699034 24.71610019 1.35798718 26.34562683 1.37937927 C30.62482508 1.43444976 34.90407032 1.483925 39.18334961 1.53222656 C43.553916 1.58255159 47.92441455 1.63818012 52.29492188 1.69335938 C60.86322381 1.80075707 69.43158268 1.90224251 78 2 C77.67 2.66 77.34 3.32 77 4 C69.33605927 4.14463885 61.67207465 4.28676219 54.00805664 4.42724609 C51.40811134 4.47518766 48.80817607 4.52367698 46.20825195 4.57275391 C38.8742885 4.7109975 31.54031974 4.83621263 24.20587158 4.94580078 C21.3135738 4.99469865 18.42249658 5.06252136 15.53076172 5.13671875 C13.99838389 5.16469902 12.46599532 5.19210157 10.93359375 5.21875 C9.66443115 5.24904297 8.39526855 5.27933594 7.08764648 5.31054688 C3.73269563 4.97311527 2.33434724 4.40091816 0 2 C0 1.34 0 0.68 0 0 Z " fill="#104268" transform="translate(110,195)"/>
<path d="M0 0 C0.33 0 0.66 0 1 0 C1 20.79 1 41.58 1 63 C0.67 63 0.34 63 0 63 C-0.33 44.19 -0.66 25.38 -1 6 C-2.32 7.32 -3.64 8.64 -5 10 C-5.66 10 -6.32 10 -7 10 C-7.16628906 10.88558594 -7.16628906 10.88558594 -7.3359375 11.7890625 C-9.25984996 18.19455928 -15.98207606 22.94706143 -21 27 C-21.66 26.67 -22.32 26.34 -23 26 C-10.52311457 11.50882115 -10.52311457 11.50882115 -4.25 4.5625 C-3.45078125 3.67691406 -2.6515625 2.79132813 -1.828125 1.87890625 C-1.22484375 1.25886719 -0.6215625 0.63882813 0 0 Z " fill="#426984" transform="translate(157,86)"/>
<path d="M0 0 C2 2 2 2 2.24050903 4.55630493 C2.23606781 5.63552216 2.23162659 6.71473938 2.22705078 7.82666016 C2.22689972 9.04777496 2.22674866 10.26888977 2.22659302 11.52700806 C2.21637903 12.86436118 2.20594702 14.20171265 2.1953125 15.5390625 C2.1915828 16.90383701 2.18873563 18.26861419 2.18673706 19.63339233 C2.17909714 23.22720723 2.15944572 26.82086073 2.1373291 30.41461182 C2.11687832 34.08107317 2.107737 37.74756057 2.09765625 41.4140625 C2.07620003 48.60944862 2.04205992 55.8047017 2 63 C4.8450003 64.48782258 6.88943639 65.26770165 10.109375 65.4140625 C10.86347656 65.45273438 11.61757812 65.49140625 12.39453125 65.53125 C13.17183594 65.5621875 13.94914063 65.593125 14.75 65.625 C15.54277344 65.66367188 16.33554688 65.70234375 17.15234375 65.7421875 C19.10119416 65.836108 21.05056451 65.91912822 23 66 C23 66.33 23 66.66 23 67 C19.72933434 67.08706892 16.45896635 67.14041241 13.1875 67.1875 C12.25873047 67.21263672 11.32996094 67.23777344 10.37304688 67.26367188 C9.48037109 67.27333984 8.58769531 67.28300781 7.66796875 67.29296875 C6.84578857 67.3086792 6.0236084 67.32438965 5.17651367 67.34057617 C2.37198454 66.90172949 1.68591517 66.27244964 0 64 C-0.36076355 61.20954895 -0.36076355 61.20954895 -0.34057617 57.78442383 C-0.34034958 56.5033223 -0.34012299 55.22222076 -0.33988953 53.90229797 C-0.32456957 52.50387219 -0.30892158 51.10544996 -0.29296875 49.70703125 C-0.28737268 48.27642766 -0.28310263 46.84581831 -0.28010559 45.41520691 C-0.26865756 41.65198868 -0.23919115 37.88911844 -0.20599365 34.1260376 C-0.17529163 30.28524483 -0.1616 26.44439577 -0.14648438 22.60351562 C-0.11432106 15.06885186 -0.06312566 7.53447471 0 0 Z " fill="#ECF9F7" transform="translate(158,86)"/>
<path d="M0 0 C1.485 0.99 1.485 0.99 3 2 C3 2.99 3 3.98 3 5 C2.34 5 1.68 5 1 5 C1 28.43 1 51.86 1 76 C0.67 76 0.34 76 0 76 C0 50.92 0 25.84 0 0 Z " fill="#15415F" transform="translate(75,87)"/>
<path d="M0 0 C0.33 0 0.66 0 1 0 C1 5.28 1 10.56 1 16 C-2.3 16 -5.6 16 -9 16 C-8.43410156 15.01257813 -7.86820313 14.02515625 -7.28515625 13.0078125 C-6.54424241 11.71355794 -5.80335855 10.41928621 -5.0625 9.125 C-4.68931641 8.47402344 -4.31613281 7.82304687 -3.93164062 7.15234375 C-1.89866922 3.61253166 -1.89866922 3.61253166 0 0 Z " fill="#D5D9DC" transform="translate(241,225)"/>
<path d="M0 0 C1.32 0.33 2.64 0.66 4 1 C4 1.99 4 2.98 4 4 C3.01 4.495 3.01 4.495 2 5 C2 20.84 2 36.68 2 53 C1.34 53 0.68 53 0 53 C0 35.51 0 18.02 0 0 Z " fill="#EFFBF4" transform="translate(103,132)"/>
<path d="M0 0 C0.99 0.99 1.98 1.98 3 3 C2.01 3.33 1.02 3.66 0 4 C-0.33 22.15 -0.66 40.3 -1 59 C-1.33 59 -1.66 59 -2 59 C-2 40.19 -2 21.38 -2 2 C-1.34 2 -0.68 2 0 2 C0 1.34 0 0.68 0 0 Z " fill="#0E4471" transform="translate(78,90)"/>
<path d="M0 0 C18.65518924 -1.15077428 18.65518924 -1.15077428 24.17578125 1.55859375 C26.06180263 3.2722183 27.59743514 4.87719913 29 7 C25.40142046 7 23.90548882 6.04169485 21 4 C21 3.34 21 2.68 21 2 C14.07 2 7.14 2 0 2 C0 1.34 0 0.68 0 0 Z " fill="#E5F0ED" transform="translate(54,50)"/>
<path d="M0 0 C4.40351374 -0.35704165 4.40351374 -0.35704165 6.64453125 0.984375 C8.81552329 4.21270898 8.43173894 7.68327315 8.375 11.4375 C8.38660156 12.20126953 8.39820313 12.96503906 8.41015625 13.75195312 C8.3921842 17.19360043 8.28804886 19.45338097 6.6640625 22.53515625 C5 24 5 24 2 24 C2 23.34 2 22.68 2 22 C2.99 21.67 3.98 21.34 5 21 C5.02690104 18.20826945 5.04679053 15.41679652 5.0625 12.625 C5.07087891 11.8309375 5.07925781 11.036875 5.08789062 10.21875 C5.23040151 5.97607778 5.23040151 5.97607778 4 2 C1.98330173 0.86649466 1.98330173 0.86649466 0 0 Z " fill="#D1E2E5" transform="translate(183,172)"/>
<path d="M0 0 C3.63 0 7.26 0 11 0 C7.67149253 3.59478807 4.01028669 6.22364768 0 9 C0 6.03 0 3.06 0 0 Z " fill="#B8C1C7" transform="translate(0,0)"/>
<path d="M0 0 C0.99 0.33 1.98 0.66 3 1 C0.4372874 4.13220429 -2.10900977 5.04560617 -6 6 C-10.66393204 6.44810327 -14.8124654 6.28410978 -19 4 C-19.33 3.34 -19.66 2.68 -20 2 C-18.83984375 2.12568359 -18.83984375 2.12568359 -17.65625 2.25390625 C-11.53598436 2.85229856 -6.0628867 3.04934578 0 2 C0 1.34 0 0.68 0 0 Z " fill="#214B6B" transform="translate(126,130)"/>
<path d="M0 0 C0 0.33 0 0.66 0 1 C-0.825 1.185625 -1.65 1.37125 -2.5 1.5625 C-6.51947793 3.21335701 -8.94783494 5.38429336 -12.0703125 8.34375 C-13.96557954 9.97045693 -15.72706954 10.98980868 -18 12 C-17.43866026 8.49541946 -16.36612392 7.08409143 -13.625 4.875 C-13.01914063 4.37742187 -12.41328125 3.87984375 -11.7890625 3.3671875 C-7.56475274 0.13900319 -5.28553388 -0.19945411 0 0 Z " fill="#143F61" transform="translate(18,0)"/>
<path d="M0 0 C0 5.36697178 -3.76905587 9.66924959 -7.3125 13.5 C-7.869375 13.995 -8.42625 14.49 -9 15 C-9.99 14.67 -10.98 14.34 -12 14 C-11.55269531 13.49210937 -11.10539062 12.98421875 -10.64453125 12.4609375 C-7.03713058 8.35357725 -3.47885075 4.21678879 0 0 Z " fill="#EAEEE9" transform="translate(129,80)"/>
<path d="M0 0 C7.56630343 0.89015334 13.27946684 6.32977378 18 12 C18 12.66 18 13.32 18 14 C17.34 14 16.68 14 16 14 C14.80767144 12.5095893 13.61601401 11.01863009 12.4296875 9.5234375 C10.31957987 7.27496215 7.77724255 6.2678716 5 5 C3.25 3.4375 3.25 3.4375 2 2 C1.34 1.34 0.68 0.68 0 0 Z " fill="#1C4364" transform="translate(218,0)"/>
<path d="M0 0 C0.33 0.99 0.66 1.98 1 3 C0.09650406 4.01191545 -0.82340847 5.00918926 -1.75 6 C-2.26046875 6.556875 -2.7709375 7.11375 -3.296875 7.6875 C-5 9 -5 9 -9 9 C-9 9.66 -9 10.32 -9 11 C-11.31 10.67 -13.62 10.34 -16 10 C-16 9.67 -16 9.34 -16 9 C-14.2675 8.7215625 -14.2675 8.7215625 -12.5 8.4375 C-7.1531712 7.14853234 -3.81527289 3.79497888 0 0 Z " fill="#18466B" transform="translate(130,117)"/>
<path d="M0 0 C0.33 0 0.66 0 1 0 C1.125 2.875 1.125 2.875 1 6 C-1 8 -1 8 -3.24658203 8.13525391 C-4.15778809 8.08288574 -5.06899414 8.03051758 -6.0078125 7.9765625 C-6.99394531 7.925 -7.98007813 7.8734375 -8.99609375 7.8203125 C-10.54490234 7.72363281 -10.54490234 7.72363281 -12.125 7.625 C-13.68541016 7.53992188 -13.68541016 7.53992188 -15.27734375 7.453125 C-17.85223418 7.31138791 -20.4261874 7.15995446 -23 7 C-23 6.67 -23 6.34 -23 6 C-22.40985107 5.99589111 -21.81970215 5.99178223 -21.21166992 5.98754883 C-18.53592984 5.95463852 -15.86247525 5.88400379 -13.1875 5.8125 C-12.25873047 5.80669922 -11.32996094 5.80089844 -10.37304688 5.79492188 C-7.81790966 5.71190298 -5.48755345 5.59451324 -3 5 C-0.84419983 2.6231939 -0.84419983 2.6231939 0 0 Z " fill="#416885" transform="translate(75,163)"/>
<path d="M0 0 C4.62630401 1.88479052 7.73519477 5.24873122 10.625 9.25 C11.97372834 11.29712875 11.97372834 11.29712875 15 12 C14.67 12.99 14.34 13.98 14 15 C10.11731114 13.70577038 8.97264458 11.8075044 6.4375 8.625 C5.65246094 7.64789063 4.86742188 6.67078125 4.05859375 5.6640625 C2.63839386 3.82615676 1.28839378 1.93259067 0 0 Z " fill="#2A526F" transform="translate(103,80)"/>
<path d="M0 0 C0.66 0.99 1.32 1.98 2 3 C0.8553125 3.8353125 0.8553125 3.8353125 -0.3125 4.6875 C-2.99438969 6.99517252 -4.22612432 8.99212384 -6 12 C-8.1875 13.8125 -8.1875 13.8125 -10 15 C-10.66 14.67 -11.32 14.34 -12 14 C-11.30132812 13.24074219 -10.60265625 12.48148438 -9.8828125 11.69921875 C-8.96343578 10.69540947 -8.04417079 9.69149785 -7.125 8.6875 C-6.66480469 8.18798828 -6.20460937 7.68847656 -5.73046875 7.17382812 C-3.61393392 4.85790957 -1.74473617 2.61710426 0 0 Z " fill="#DAE5E6" transform="translate(149,57)"/>
<path d="M0 0 C3.39554235 -0.11660824 6.79056679 -0.18738372 10.1875 -0.25 C11.14720703 -0.28351562 12.10691406 -0.31703125 13.09570312 -0.3515625 C20.28921324 -0.45112665 20.28921324 -0.45112665 24.17578125 2.015625 C24.77777344 2.67046875 25.37976563 3.3253125 26 4 C25.67 4.66 25.34 5.32 25 6 C24.01 5.34 23.02 4.68 22 4 C22 3.34 22 2.68 22 2 C14.74 1.67 7.48 1.34 0 1 C0 0.67 0 0.34 0 0 Z " fill="#D4E6EB" transform="translate(157,50)"/>
<path d="M0 0 C0.66 0 1.32 0 2 0 C2.66 0.66 3.32 1.32 4 2 C4.33 2 4.66 2 5 2 C5 4.97 5 7.94 5 11 C0 4.63636364 0 4.63636364 0 0 Z " fill="#C9D7E1" transform="translate(237,12)"/>
<path d="M0 0 C2 3 2 3 1.8125 5 C0.90059285 7.24469451 -0.18533754 8.42203265 -2 10 C-2.66 9.67 -3.32 9.34 -4 9 C-3.71125 8.443125 -3.4225 7.88625 -3.125 7.3125 C-1.9586747 4.91505355 -0.9660119 2.48403061 0 0 Z " fill="#1F527C" transform="translate(191,189)"/>
<path d="M0 0 C-4.48074195 3.36055646 -7.60550707 3.27429625 -13 3 C-9.54666565 -0.45333435 -4.63654999 -1.85462 0 0 Z " fill="#DAE8EB" transform="translate(125,123)"/>
<path d="M0 0 C1.32 0.33 2.64 0.66 4 1 C4 1.99 4 2.98 4 4 C3.01 4.495 3.01 4.495 2 5 C1.34444881 7.52733235 1.34444881 7.52733235 1 10 C0.67 10 0.34 10 0 10 C0 6.7 0 3.4 0 0 Z " fill="#E7F5F1" transform="translate(103,132)"/>
<path d="M0 0 C2.1875 -0.375 2.1875 -0.375 5 0 C6.99022836 1.83961648 8.38989899 3.79186148 10 6 C6.62972148 6 5.93297304 5.50175992 3.3125 3.5625 C2.68988281 3.11003906 2.06726563 2.65757812 1.42578125 2.19140625 C0.95527344 1.79824219 0.48476562 1.40507812 0 1 C0 0.67 0 0.34 0 0 Z " fill="#A8B7C2" transform="translate(222,0)"/>
<path d="M0 0 C1.09658936 3.28976808 0.79953138 4.71303767 0 8 C-1.65 8 -3.3 8 -5 8 C-3.35 5.36 -1.7 2.72 0 0 Z " fill="#B8C9D4" transform="translate(237,233)"/>
<path d="M0 0 C0 3.67718093 -0.82184858 5.07076189 -3 8 C-5.6875 9.3125 -5.6875 9.3125 -8 10 C-7.04367001 8.70684939 -6.08486149 7.41553147 -5.125 6.125 C-4.59132813 5.40570313 -4.05765625 4.68640625 -3.5078125 3.9453125 C-2 2 -2 2 0 0 Z " fill="#DAE7E8" transform="translate(129,80)"/>
<path d="M0 0 C0.33 0.99 0.66 1.98 1 3 C-0.65 4.65 -2.3 6.3 -4 8 C-4.66 7.67 -5.32 7.34 -6 7 C-4.02 4.69 -2.04 2.38 0 0 Z " fill="#295272" transform="translate(140,105)"/>
<path d="M0 0 C1.32 0.33 2.64 0.66 4 1 C4 1.99 4 2.98 4 4 C4.99 4.33 5.98 4.66 7 5 C6.67 5.99 6.34 6.98 6 8 C4.9970458 6.85675161 3.99770973 5.71032809 3 4.5625 C2.443125 3.92441406 1.88625 3.28632812 1.3125 2.62890625 C0 1 0 1 0 0 Z " fill="#1A4869" transform="translate(93,68)"/>
<path d="M0 0 C0.66 0.33 1.32 0.66 2 1 C0.02 3.31 -1.96 5.62 -4 8 C-4.33 6.68 -4.66 5.36 -5 4 C-3.35 2.68 -1.7 1.36 0 0 Z " fill="#E1EDEB" transform="translate(139,104)"/>
<path d="M0 0 C0.33 0 0.66 0 1 0 C1 1.98 1 3.96 1 6 C-0.98 6.99 -0.98 6.99 -3 8 C-1.125 2.25 -1.125 2.25 0 0 Z " fill="#B0C1D1" transform="translate(241,225)"/>
<path d="M0 0 C0 3.57575896 -1.08840607 5.05295935 -3 8 C-3.99 7.67 -4.98 7.34 -6 7 C-4.02 4.69 -2.04 2.38 0 0 Z " fill="#DDE9EA" transform="translate(136,72)"/>
<path d="M0 0 C0.99 0.33 1.98 0.66 3 1 C1.35 2.65 -0.3 4.3 -2 6 C-2.33 4.68 -2.66 3.36 -3 2 C-2.01 1.34 -1.02 0.68 0 0 Z " fill="#19476C" transform="translate(146,57)"/>
</svg>
