<?xml version="1.0" encoding="UTF-8"?>
<svg version="1.1" xmlns="http://www.w3.org/2000/svg" width="242" height="241">
<path d="M0 0 C79.86 0 159.72 0 242 0 C242 79.53 242 159.06 242 241 C162.14 241 82.28 241 0 241 C0 161.47 0 81.94 0 0 Z " fill="#FCFCFD" transform="translate(0,0)"/>
<path d="M0 0 C4.52448165 2.12225067 6.95281085 5.10350982 10 9 C11.03435893 10.18998539 12.07656559 11.37317822 13.125 12.55078125 C15.38736076 15.1029431 17.61661476 17.67827488 19.8203125 20.28125 C22.59850639 23.55286183 25.46198108 26.72291874 28.375 29.875 C32.06184103 33.88008627 35.42003726 38.01884922 38.625 42.41796875 C39.07875 42.94003906 39.5325 43.46210937 40 44 C40.66 44 41.32 44 42 44 C43.35097374 42.48848454 44.62927345 40.91186687 45.875 39.3125 C49.46977839 34.81322898 53.19499116 30.52124596 57.125 26.3125 C60.9096688 22.25568453 64.64052919 18.17129438 68.27734375 13.98046875 C70.42096687 11.51603128 72.5802126 9.06644617 74.75 6.625 C75.48734375 5.79226562 76.2246875 4.95953125 76.984375 4.1015625 C79.21713114 1.77361133 80.91762931 0.14365616 84.18896484 -0.29052734 C86.91814837 -0.3396685 89.64534014 -0.37131127 92.375 -0.375 C93.79425781 -0.41173828 93.79425781 -0.41173828 95.2421875 -0.44921875 C99.66701299 -0.46786268 102.2618088 -0.45183996 106.1015625 1.8984375 C109.70881061 5.89164631 109.15451126 9.67234976 109.16113281 14.80834961 C109.16609772 15.72065842 109.17106262 16.63296722 109.17617798 17.57292175 C109.19081722 20.59940334 109.19760398 23.62583254 109.203125 26.65234375 C109.2088743 28.74980166 109.21463206 30.84725954 109.22039795 32.94471741 C109.23091248 37.34555304 109.23675242 41.74637037 109.24023438 46.1472168 C109.24572485 51.79458182 109.26976287 57.44170642 109.29820633 63.08899593 C109.31680033 67.42205011 109.32203654 71.75504596 109.32357025 76.08813667 C109.32660384 78.17061238 109.334656 80.25308689 109.34775543 82.33552361 C109.36475085 85.24462234 109.36295182 88.15312806 109.35644531 91.06225586 C109.37026749 92.35981812 109.37026749 92.35981812 109.3843689 93.68359375 C109.34294711 99.57548769 109.34294711 99.57548769 107.61008835 101.72048283 C105.47496725 103.417237 104.14420671 103.38703284 101.4375 103.3984375 C100.55835938 103.40230469 99.67921875 103.40617187 98.7734375 103.41015625 C97.40058594 103.39275391 97.40058594 103.39275391 96 103.375 C94.62714844 103.39240234 94.62714844 103.39240234 93.2265625 103.41015625 C92.34742188 103.40628906 91.46828125 103.40242188 90.5625 103.3984375 C89.35787109 103.39336182 89.35787109 103.39336182 88.12890625 103.38818359 C85.38193487 102.88730234 84.66466772 102.23543289 83 100 C82.63923645 97.20954895 82.63923645 97.20954895 82.65942383 93.78442383 C82.65965042 92.5033223 82.65987701 91.22222076 82.66011047 89.90229797 C82.67543043 88.50387219 82.69107842 87.10544996 82.70703125 85.70703125 C82.71262732 84.27642766 82.71689737 82.84581831 82.71989441 81.41520691 C82.73134244 77.65198868 82.76080885 73.88911844 82.79400635 70.1260376 C82.82470837 66.28524483 82.8384 62.44439577 82.85351562 58.60351562 C82.88567894 51.06885186 82.93687434 43.53447471 83 36 C82.34 36 81.68 36 81 36 C80.77441406 36.54527344 80.54882812 37.09054688 80.31640625 37.65234375 C78.6085679 40.69807327 76.32945554 43.05320785 73.9375 45.5625 C70.2907372 49.45783782 66.78494697 53.40210162 63.4375 57.5625 C60.27308545 61.47817843 57.04299814 65.31056125 53.6875 69.0625 C52.88699219 69.96097656 52.08648437 70.85945313 51.26171875 71.78515625 C47.39163752 75.57502854 44.60983245 76.21980503 39.1953125 76.4609375 C33.42608875 75.24960582 29.47470624 70.65111761 25.6875 66.4375 C25.2138501 65.9122876 24.7402002 65.3870752 24.25219727 64.84594727 C20.49777133 60.64811991 16.93700583 56.3047921 13.41088867 51.91381836 C10.92871819 48.91384826 8.35130141 46.03231527 5.72265625 43.16015625 C4.83457275 42.18828369 3.94648926 41.21641113 3.03149414 40.21508789 C2.36110107 39.48410889 1.69070801 38.75312988 1 38 C0.99413376 38.95577942 0.98826752 39.91155884 0.98222351 40.89630127 C0.92502253 49.90150086 0.85227477 58.90645835 0.76428509 67.91141129 C0.71954823 72.54102083 0.68029948 77.17054169 0.65356445 81.80029297 C0.62756446 86.26787124 0.58718567 90.73510887 0.53681374 95.2024765 C0.52012261 96.90727249 0.50862233 98.61212742 0.50238609 100.31699371 C0.49276923 102.70420584 0.46474019 105.09054209 0.43237305 107.47753906 C0.43380814 108.18316483 0.43524323 108.88879059 0.4367218 109.61579895 C0.35919146 113.65606398 -0.03839911 116.14324319 -3 119 C-5.32836914 119.50170898 -5.32836914 119.50170898 -8.03515625 119.49609375 C-9.49598633 119.49706055 -9.49598633 119.49706055 -10.98632812 119.49804688 C-12.00146484 119.47806641 -13.01660156 119.45808594 -14.0625 119.4375 C-15.59100586 119.44813477 -15.59100586 119.44813477 -17.15039062 119.45898438 C-22.76532895 119.41061181 -22.76532895 119.41061181 -25 119 C-27.10309967 115.8453505 -27.25237473 115.09788196 -27.26742554 111.49685669 C-27.27595551 110.57440155 -27.28448547 109.65194641 -27.29327393 108.70153809 C-27.29236755 107.6915979 -27.29146118 106.68165771 -27.29052734 105.64111328 C-27.29724457 104.5758139 -27.30396179 103.51051453 -27.31088257 102.41293335 C-27.32992163 98.88201263 -27.33378977 95.35128139 -27.3359375 91.8203125 C-27.34236134 89.37035035 -27.34908939 86.92038898 -27.35610962 84.47042847 C-27.3680972 79.33069072 -27.37178892 74.19102027 -27.37060547 69.05126953 C-27.37040221 62.46129451 -27.39770587 55.87175038 -27.43214989 49.28187752 C-27.45437409 44.22042861 -27.45844438 39.15908412 -27.45738602 34.0975914 C-27.45974867 31.66788116 -27.46860935 29.23816833 -27.48405075 26.80850601 C-27.50361929 23.41125464 -27.49790789 20.01494187 -27.48583984 16.61767578 C-27.49707886 15.61178406 -27.50831787 14.60589233 -27.51989746 13.56951904 C-27.48027219 9.18567043 -27.42946565 6.69898311 -25.09463501 2.89889526 C-19.07513603 -2.55809274 -7.57740697 -1.16656964 0 0 Z " fill="#074679" transform="translate(74,47)"/>
<path d="M0 0 C0.66 0 1.32 0 2 0 C2 13.2 2 26.4 2 40 C6.06828125 39.96519531 10.1365625 39.93039063 14.328125 39.89453125 C17.57481103 39.87523431 20.82148082 39.85896738 24.06819153 39.84474945 C27.49398329 39.82891637 30.91955189 39.80776326 34.34521484 39.77368164 C38.27699071 39.73481015 42.2086759 39.72028279 46.140625 39.70703125 C47.97986542 39.68380547 47.97986542 39.68380547 49.85626221 39.66011047 C50.99714294 39.65988388 52.13802368 39.65965729 53.31347656 39.65942383 C54.31719299 39.65276199 55.32090942 39.64610016 56.3550415 39.63923645 C59.42076228 40.05739058 60.78567914 40.87173341 63 43 C63.51757812 45.12890625 63.51757812 45.12890625 63.53125 47.5625 C63.53898437 48.88121094 63.53898437 48.88121094 63.546875 50.2265625 C63.53140625 51.14179688 63.5159375 52.05703125 63.5 53 C63.52320313 54.37285156 63.52320313 54.37285156 63.546875 55.7734375 C63.54171875 56.65257812 63.5365625 57.53171875 63.53125 58.4375 C63.52673828 59.24058594 63.52222656 60.04367188 63.51757812 60.87109375 C63 63 63 63 61.40791321 64.60780334 C58.14197859 66.49608704 55.72055231 66.38799639 51.95581055 66.40405273 C51.25445984 66.41091599 50.55310913 66.41777924 49.83050537 66.42485046 C47.51570284 66.44312643 45.20157785 66.43927892 42.88671875 66.43359375 C41.27252482 66.43815637 39.65833284 66.44346218 38.04414368 66.44947815 C34.66061516 66.45841167 31.2773226 66.45598487 27.89379883 66.44604492 C23.56946541 66.43457589 19.24595109 66.45473308 14.92172527 66.48396206 C11.58698901 66.50236268 8.25244743 66.5020236 4.91767311 66.49632454 C3.32415432 66.49617168 1.73062204 66.50218651 0.13715172 66.51461601 C-2.09828677 66.5295919 -4.33223327 66.51880163 -6.56762695 66.50170898 C-7.83685501 66.50154282 -9.10608307 66.50137665 -10.41377258 66.50120544 C-15.86765794 65.73897909 -19.52608601 63.50343999 -23.41308594 59.53857422 C-25.81064445 54.19238758 -25.49262287 49.17355516 -25.390625 43.3828125 C-25.38496521 42.17051971 -25.37930542 40.95822693 -25.37347412 39.709198 C-25.35113158 35.84739251 -25.30093598 31.98652382 -25.25 28.125 C-25.2299324 25.50261759 -25.21168209 22.8802206 -25.1953125 20.2578125 C-25.15127351 13.83822348 -25.08438105 7.41917868 -25 1 C-24.236875 1.309375 -23.47375 1.61875 -22.6875 1.9375 C-15.40677292 4.81592699 -9.34746885 4.64508878 -2 2 C-1.34 1.34 -0.68 0.68 0 0 Z " fill="#0C497B" transform="translate(127,128)"/>
<path d="M0 0 C0.33 0 0.66 0 1 0 C1.06943354 11.94346072 1.12277746 23.88687363 1.15543652 35.83049488 C1.17110923 41.37608265 1.19237688 46.92153258 1.22631836 52.46704102 C1.25885442 57.81624905 1.27684091 63.16532431 1.28463173 68.51462364 C1.29018558 70.55803201 1.30103057 72.60143291 1.31719017 74.64478493 C1.33888791 77.50138828 1.34197013 80.35743916 1.34057617 83.21411133 C1.351362 84.06359344 1.36214783 84.91307556 1.3732605 85.78829956 C1.34258612 91.57676882 1.34258612 91.57676882 -0.38949108 93.71657848 C-2.52468709 95.41812541 -3.85295659 95.38702088 -6.5625 95.3984375 C-7.88121094 95.40423828 -7.88121094 95.40423828 -9.2265625 95.41015625 C-10.59941406 95.39275391 -10.59941406 95.39275391 -12 95.375 C-13.37285156 95.39240234 -13.37285156 95.39240234 -14.7734375 95.41015625 C-15.65257812 95.40628906 -16.53171875 95.40242188 -17.4375 95.3984375 C-18.64212891 95.39336182 -18.64212891 95.39336182 -19.87109375 95.38818359 C-22.61504879 94.88785234 -23.33441512 94.22978096 -25 92 C-25.36076355 89.24751282 -25.36076355 89.24751282 -25.34057617 85.8762207 C-25.34034958 84.61513992 -25.34012299 83.35405914 -25.33988953 82.05476379 C-25.32456963 80.67843268 -25.30892164 79.30210518 -25.29296875 77.92578125 C-25.2873726 76.51759798 -25.28310259 75.10940886 -25.28010559 73.70121765 C-25.26865818 69.99718056 -25.23919235 66.2934971 -25.20599365 62.58959961 C-25.17529026 58.80913069 -25.16159971 55.02860457 -25.14648438 51.24804688 C-25.11432216 43.83187014 -25.06312755 36.41598464 -25 29 C-24.67 29 -24.34 29 -24 29 C-23.98969254 29.73027405 -23.97938507 30.4605481 -23.96876526 31.21295166 C-23.87074113 38.09893723 -23.76821969 44.98484278 -23.66066074 51.87068558 C-23.60552345 55.41066693 -23.55211839 58.95065668 -23.50268555 62.49072266 C-23.44576415 66.56161313 -23.38128443 70.6323535 -23.31640625 74.703125 C-23.29969376 75.97303284 -23.28298126 77.24294067 -23.26576233 78.55133057 C-23.24581711 79.73225281 -23.22587189 80.91317505 -23.20532227 82.12988281 C-23.18977798 83.16912903 -23.1742337 84.20837524 -23.15821838 85.27911377 C-23.01906411 87.67215397 -22.68268893 89.71144075 -22 92 C-20.02 92 -18.04 92 -16 92 C-16 92.66 -16 93.32 -16 94 C-14.06215735 93.85879286 -12.12473045 93.71187127 -10.1875 93.5625 C-9.10855469 93.48128906 -8.02960938 93.40007812 -6.91796875 93.31640625 C-3.94010095 93.09787539 -3.94010095 93.09787539 -1 92 C-0.67 61.64 -0.34 31.28 0 0 Z " fill="#103E63" transform="translate(182,55)"/>
<path d="M0 0 C5.61 0 11.22 0 17 0 C17 7.59 17 15.18 17 23 C15.47204648 20.70806972 14.41984306 18.78272683 13.3125 16.3125 C10.12979114 9.83979996 5.05091159 5.05091159 0 0 Z " fill="#CFD1D2" transform="translate(225,0)"/>
<path d="M0 0 C0.33 0 0.66 0 1 0 C1 7.92 1 15.84 1 24 C-3.62 24 -8.24 24 -13 24 C-12.13375 22.9275 -11.2675 21.855 -10.375 20.75 C-5.82483337 14.69752182 -1.51725561 7.49702774 0 0 Z " fill="#CBCDCE" transform="translate(241,217)"/>
<path d="M0 0 C0.66 0 1.32 0 2 0 C2.33 21.78 2.66 43.56 3 66 C1.68 65.67 0.36 65.34 -1 65 C-0.67 43.55 -0.34 22.1 0 0 Z " fill="#C6DCE6" transform="translate(155,83)"/>
<path d="M0 0 C2.475 0.99 2.475 0.99 5 2 C7.09449169 2.42573106 9.20003211 2.80000494 11.3125 3.125 C12.38113281 3.29257813 13.44976562 3.46015625 14.55078125 3.6328125 C15.35902344 3.75398437 16.16726562 3.87515625 17 4 C17 4.33 17 4.66 17 5 C16.00097656 5.04898438 15.00195312 5.09796875 13.97265625 5.1484375 C12.68230469 5.22320312 11.39195313 5.29796875 10.0625 5.375 C8.77472656 5.44460937 7.48695312 5.51421875 6.16015625 5.5859375 C5.11730469 5.72257813 4.07445313 5.85921875 3 6 C1.79112709 8.41774581 1.87940657 9.93331064 1.88647461 12.63330078 C1.88655014 13.59414581 1.88662567 14.55499084 1.88670349 15.54495239 C1.89186478 16.58457123 1.89702606 17.62419006 1.90234375 18.6953125 C1.90446617 20.28918289 1.90446617 20.28918289 1.90663147 21.91525269 C1.91224166 25.31853009 1.92479591 28.72174238 1.9375 32.125 C1.94251369 34.42838447 1.94707682 36.73176997 1.95117188 39.03515625 C1.9622144 44.69012649 1.97896248 50.34505859 2 56 C1.34 55.67 0.68 55.34 0 55 C0 36.85 0 18.7 0 0 Z " fill="#17456A" transform="translate(102,129)"/>
<path d="M0 0 C0.33 0 0.66 0 1 0 C1.04627253 10.52652818 1.08184327 21.0530323 1.10362434 31.57964134 C1.1140764 36.46719318 1.12826144 41.35467561 1.15087891 46.2421875 C1.17255671 50.95596629 1.1845579 55.66967818 1.18975449 60.38350296 C1.19345937 62.18490274 1.20069374 63.98629872 1.21146011 65.78767014 C1.22590787 68.30432901 1.22798078 70.82070889 1.22705078 73.33740234 C1.23783661 74.46273125 1.23783661 74.46273125 1.24884033 75.61079407 C1.22810432 80.77189568 1.22810432 80.77189568 -1 83 C-3.06298828 83.22705078 -3.06298828 83.22705078 -5.5703125 83.1953125 C-6.46621094 83.18886719 -7.36210938 83.18242187 -8.28515625 83.17578125 C-9.69087891 83.15064453 -9.69087891 83.15064453 -11.125 83.125 C-12.54232422 83.11146484 -12.54232422 83.11146484 -13.98828125 83.09765625 C-16.32577292 83.07404522 -18.66276123 83.04111516 -21 83 C-21 82.67 -21 82.34 -21 82 C-15.06 82 -9.12 82 -3 82 C-3 81.34 -3 80.68 -3 80 C-2.01 79.505 -2.01 79.505 -1 79 C-0.67 52.93 -0.34 26.86 0 0 Z " fill="#0C3D66" transform="translate(72,83)"/>
<path d="M0 0 C0.33 0 0.66 0 1 0 C1.04950439 5.88988016 1.0857692 11.7796387 1.10986328 17.66967773 C1.11990963 19.67262889 1.13354909 21.67556542 1.15087891 23.6784668 C1.17518713 26.56042088 1.18649687 29.44218072 1.1953125 32.32421875 C1.20563507 33.21711105 1.21595764 34.11000336 1.22659302 35.029953 C1.22674408 35.87044693 1.22689514 36.71094086 1.22705078 37.5769043 C1.231492 38.31192673 1.23593323 39.04694916 1.24050903 39.804245 C1 42 1 42 -1 47 C-8.26 47 -15.52 47 -23 47 C-23 46.67 -23 46.34 -23 46 C-22.44014404 45.9906543 -21.88028809 45.98130859 -21.3034668 45.97167969 C-18.76391854 45.91795493 -16.22620889 45.83431813 -13.6875 45.75 C-12.80642578 45.73582031 -11.92535156 45.72164062 -11.01757812 45.70703125 C-9.74624023 45.65869141 -9.74624023 45.65869141 -8.44921875 45.609375 C-7.66893311 45.58842773 -6.88864746 45.56748047 -6.0847168 45.54589844 C-3.90981179 45.13384327 -3.90981179 45.13384327 -2.25390625 43.546875 C-0.33887032 39.65714469 -0.51951442 35.92328522 -0.48828125 31.640625 C-0.47033005 30.73624695 -0.45237885 29.8318689 -0.43388367 28.90008545 C-0.37978143 26.0167708 -0.34588526 23.13362168 -0.3125 20.25 C-0.27932685 18.29294572 -0.24483719 16.33591328 -0.20898438 14.37890625 C-0.12405496 9.58605693 -0.0572433 4.79325671 0 0 Z " fill="#E3F1F6" transform="translate(184,104)"/>
<path d="M0 0 C1.42505859 -0.0299707 1.42505859 -0.0299707 2.87890625 -0.06054688 C9.85387968 -0.05564183 9.85387968 -0.05564183 13.15625 2.46484375 C13.5996875 3.11582031 14.043125 3.76679687 14.5 4.4375 C13.65308594 4.19410889 13.65308594 4.19410889 12.7890625 3.94580078 C10.40912718 3.41732112 8.31029593 3.308158 5.875 3.3046875 C5.00359375 3.30339844 4.1321875 3.30210938 3.234375 3.30078125 C2.33203125 3.30464844 1.4296875 3.30851562 0.5 3.3125 C-0.40234375 3.30863281 -1.3046875 3.30476563 -2.234375 3.30078125 C-3.54148437 3.30271484 -3.54148437 3.30271484 -4.875 3.3046875 C-5.66648437 3.30581543 -6.45796875 3.30694336 -7.2734375 3.30810547 C-9.47001874 3.43575767 -11.38988713 3.83108343 -13.5 4.4375 C-13.5 5.7575 -13.5 7.0775 -13.5 8.4375 C-14.49 8.4375 -15.48 8.4375 -16.5 8.4375 C-13.65750728 -0.32685255 -8.1640489 -0.06092574 0 0 Z " fill="#1D4A6F" transform="translate(63.5,46.5625)"/>
<path d="M0 0 C0.33 0 0.66 0 1 0 C1 3.96 1 7.92 1 12 C-2.3 12 -5.6 12 -9 12 C-7 9.33333333 -5 6.66666667 -3 4 C-2.45988281 3.25234375 -1.91976562 2.5046875 -1.36328125 1.734375 C-0.91339844 1.16203125 -0.46351563 0.5896875 0 0 Z " fill="#D6D9DB" transform="translate(241,229)"/>
<path d="M0 0 C0 12.87 0 25.74 0 39 C-0.33 39 -0.66 39 -1 39 C-1.495 21.675 -1.495 21.675 -2 4 C-2.99 4 -3.98 4 -5 4 C-5 3.34 -5 2.68 -5 2 C-2 0 -2 0 0 0 Z " fill="#144569" transform="translate(128,129)"/>
<path d="M0 0 C4.72641162 3.68549509 4.72641162 3.68549509 5.40811157 6.96084595 C5.48152354 9.33156626 5.40601167 11.65154039 5.26953125 14.01953125 C5.24026047 14.87810226 5.21098969 15.73667328 5.18083191 16.6212616 C5.08216029 19.35323897 4.94785307 22.08211853 4.8125 24.8125 C4.73917823 26.66852813 4.66818814 28.52464994 4.59960938 30.38085938 C4.4267396 34.92210193 4.22190593 39.46090004 4 44 C3.67 44 3.34 44 3 44 C2.98018066 42.91581787 2.96036133 41.83163574 2.93994141 40.71459961 C2.86351235 36.66831366 2.7748542 32.62236993 2.68261719 28.57641602 C2.64448087 26.82974027 2.60960198 25.08299009 2.578125 23.33618164 C2.53213913 20.81629954 2.47420253 18.2969231 2.4140625 15.77734375 C2.39673569 14.6175425 2.39673569 14.6175425 2.37905884 13.43431091 C2.24994017 8.62403525 1.50956712 4.57372355 0 0 Z " fill="#0B4572" transform="translate(178,48)"/>
<path d="M0 0 C3.36179774 1.44077046 5.59156268 3.24750021 8 6 C8 6.66 8 7.32 8 8 C12.62 8 17.24 8 22 8 C19 11 19 11 15.1875 11.4375 C10.12722403 11.22433819 6.9821765 9.09723687 3.51953125 5.43359375 C0 1.3422619 0 1.3422619 0 0 Z " fill="#214C6F" transform="translate(100,112)"/>
<path d="M0 0 C0.66 0 1.32 0 2 0 C0.38462556 3.89917968 -2.27924873 6.71293772 -5.125 9.75 C-5.59292969 10.25660156 -6.06085938 10.76320313 -6.54296875 11.28515625 C-7.69126541 12.52719141 -8.84508672 13.76411494 -10 15 C-11 12 -11 12 -10.25 9.875 C-9 8 -9 8 -6 7 C-4.66172696 5.33729713 -3.32810215 3.67083819 -2 2 C-1.34 2 -0.68 2 0 2 C0 1.34 0 0.68 0 0 Z " fill="#1C496E" transform="translate(147,90)"/>
<path d="M0 0 C0.66 0.99 1.32 1.98 2 3 C-0.64 5.97 -3.28 8.94 -6 12 C-6.66 11.01 -7.32 10.02 -8 9 C-5.36 6.03 -2.72 3.06 0 0 Z " fill="#235378" transform="translate(125,80)"/>
<path d="M0 0 C0.66 1.32 1.32 2.64 2 4 C0.79174805 5.97558594 0.79174805 5.97558594 -1 8 C-3.17651367 8.45410156 -3.17651367 8.45410156 -5.66796875 8.390625 C-6.56064453 8.37773437 -7.45332031 8.36484375 -8.37304688 8.3515625 C-9.30181641 8.31804687 -10.23058594 8.28453125 -11.1875 8.25 C-12.12787109 8.23195312 -13.06824219 8.21390625 -14.03710938 8.1953125 C-16.35909889 8.1481655 -18.6790369 8.08238231 -21 8 C-21 7.67 -21 7.34 -21 7 C-19.73542969 6.93941406 -18.47085938 6.87882813 -17.16796875 6.81640625 C-15.50780129 6.73199096 -13.84764563 6.64734345 -12.1875 6.5625 C-11.35412109 6.52318359 -10.52074219 6.48386719 -9.66210938 6.44335938 C-8.85966797 6.40146484 -8.05722656 6.35957031 -7.23046875 6.31640625 C-6.49207764 6.27974854 -5.75368652 6.24309082 -4.99291992 6.20532227 C-2.792505 6.05157859 -2.792505 6.05157859 0 5 C0 3.35 0 1.7 0 0 Z " fill="#1E4769" transform="translate(181,142)"/>
<path d="M0 0 C0.33 0.99 0.66 1.98 1 3 C-1.56565781 6.74980757 -4.75396188 9.83719363 -8 13 C-8.598125 13.598125 -9.19625 14.19625 -9.8125 14.8125 C-10.204375 15.204375 -10.59625 15.59625 -11 16 C-11.66 15.67 -12.32 15.34 -13 15 C-12.22914062 14.16855469 -11.45828125 13.33710937 -10.6640625 12.48046875 C-9.6509335 11.38291233 -8.63791863 10.28525056 -7.625 9.1875 C-7.11710938 8.64029297 -6.60921875 8.09308594 -6.0859375 7.52929688 C-3.84783697 5.09977985 -1.83620888 2.75431332 0 0 Z " fill="#2A5474" transform="translate(139,64)"/>
<path d="M0 0 C3.91939465 3.80411834 7.49102731 7.81576108 11 12 C10.67 12.66 10.34 13.32 10 14 C9.01 13.34 8.02 12.68 7 12 C7 11.34 7 10.68 7 10 C6.34 10 5.68 10 5 10 C3.7109375 8.3203125 3.7109375 8.3203125 2.375 6.125 C1.92898437 5.40570313 1.48296875 4.68640625 1.0234375 3.9453125 C0 2 0 2 0 0 Z " fill="#295373" transform="translate(98,73)"/>
<path d="M0 0 C0.33 0 0.66 0 1 0 C1 6.6 1 13.2 1 20 C-0.65 20.33 -2.3 20.66 -4 21 C-3.01 19.515 -3.01 19.515 -2 18 C-1.34 18 -0.68 18 0 18 C0 12.06 0 6.12 0 0 Z " fill="#12456E" transform="translate(188,172)"/>
<path d="M0 0 C0.66 0.66 1.32 1.32 2 2 C0 4 0 4 -2.06298828 4.22705078 C-3.30411377 4.21134033 -3.30411377 4.21134033 -4.5703125 4.1953125 C-5.46621094 4.18886719 -6.36210938 4.18242187 -7.28515625 4.17578125 C-8.22230469 4.15902344 -9.15945312 4.14226562 -10.125 4.125 C-11.06988281 4.11597656 -12.01476563 4.10695312 -12.98828125 4.09765625 C-15.32577292 4.07404522 -17.66276123 4.04111516 -20 4 C-20 3.67 -20 3.34 -20 3 C-14.06 3 -8.12 3 -2 3 C-2 2.34 -2 1.68 -2 1 C-1.34 0.67 -0.68 0.34 0 0 Z " fill="#17456B" transform="translate(71,162)"/>
<path d="M0 0 C2.31 0 4.62 0 7 0 C6.02433888 1.16959987 5.044375 2.33561177 4.0625 3.5 C3.51722656 4.1496875 2.97195312 4.799375 2.41015625 5.46875 C1.94480469 5.9740625 1.47945313 6.479375 1 7 C0.67 7 0.34 7 0 7 C0 4.69 0 2.38 0 0 Z " fill="#D1D1D2" transform="translate(0,0)"/>
<path d="M0 0 C0.33 0.66 0.66 1.32 1 2 C-0.98 4.31 -2.96 6.62 -5 9 C-5.66 8.67 -6.32 8.34 -7 8 C-4.69 5.36 -2.38 2.72 0 0 Z " fill="#D9EBF2" transform="translate(155,84)"/>
<path d="M0 0 C2.5625 2.125 2.5625 2.125 5 5 C4.8125 8.3125 4.8125 8.3125 4 11 C2.03698408 7.49461443 1.04097612 3.86648272 0 0 Z " fill="#275475" transform="translate(178,48)"/>
<path d="M0 0 C0.99 0.66 1.98 1.32 3 2 C1.68 2.33 0.36 2.66 -1 3 C-1 4.32 -1 5.64 -1 7 C-1.99 7 -2.98 7 -4 7 C-2.92598892 4.08482708 -2.22189824 2.22189824 0 0 Z " fill="#255174" transform="translate(51,48)"/>
<path d="M0 0 C2.93200474 2.85276137 5.64315404 5.65079784 8 9 C7.01 9 6.02 9 5 9 C3.61328125 7.5390625 3.61328125 7.5390625 2.3125 5.625 C1.65701172 4.68527344 1.65701172 4.68527344 0.98828125 3.7265625 C0 2 0 2 0 0 Z " fill="#2D5679" transform="translate(90,64)"/>
<path d="M0 0 C1.65 1.65 3.3 3.3 5 5 C3.68 4.67 2.36 4.34 1 4 C1 5.65 1 7.3 1 9 C0.67 9 0.34 9 0 9 C0 6.03 0 3.06 0 0 Z " fill="#E6F7FA" transform="translate(74,84)"/>
</svg>
